#!OML:ASF F:\VICON\USERDATA\INSTALL\rory3\rory3.ASF
:FULLY-SPECIFIED
:DEGREES
193
root -6.64523 17.8547 7.97619 -5.85524 53.8698 -6.00929
lowerback 11.3699 2.27554 2.34783
upperback 0.728117 3.38291 0.643188
thorax -5.5128 1.62314 -1.18386
lowerneck -21.1635 -5.25312 -12.0052
upperneck 29.2588 -5.50366 7.729
head 14.1346 -2.57607 4.18748
rclavicle 1.90461e-014 6.06293e-015
rhumerus -29.3198 -7.5909 -79.8203
rradius 32.7355
rwrist 3.76735
rhand -17.3265 7.66996
rfingers 7.12502
rthumb 8.92027 -22.1215
lclavicle 1.90461e-014 6.06293e-015
lhumerus -38.104 9.68701 81.7882
lradius 26.1216
lwrist -9.14074
lhand -16.1919 27.1696
lfingers 7.12502
lthumb 10.015 56.9113
rfemur 11.5853 -1.87573 23.5205
rtibia 12.1171
rfoot -11.7211 -12.8128
rtoes -9.35778
lfemur -22.5652 -0.409544 -18.9077
ltibia 15.1054
lfoot 0.240908 6.19669
ltoes 7.08242
194
root -6.53996 17.8475 8.03971 -5.77675 54.0891 -6.13042
lowerback 11.2237 2.31719 2.49737
upperback 0.697368 3.45058 0.605248
thorax -5.45005 1.65308 -1.31118
lowerneck -21.1347 -5.25764 -11.8318
upperneck 29.0722 -5.54319 7.63727
head 14.0419 -2.58486 4.10478
rclavicle -1.85367e-014 -7.7526e-015
rhumerus -29.1352 -7.88587 -79.712
rradius 32.9754
rwrist 3.97004
rhand -17.5203 7.75405
rfingers 7.12502
rthumb 8.73331 -22.0453
lclavicle -1.85367e-014 -7.7526e-015
lhumerus -38.1465 9.96165 81.5736
lradius 25.7381
lwrist -9.16579
lhand -16.4091 26.1814
lfingers 7.12502
lthumb 9.80545 55.9331
rfemur 12.0108 -2.04476 23.5365
rtibia 11.7611
rfoot -11.6547 -12.8559
rtoes -9.57932
lfemur -22.5288 -0.764342 -18.8331
ltibia 13.6671
lfoot -0.350866 7.14322
ltoes 6.32864
195
root -6.43762 17.8396 8.10655 -5.61012 54.3792 -6.04393
lowerback 11.179 2.38099 2.42579
upperback 0.653439 3.52222 0.554444
thorax -5.46965 1.6885 -1.33412
lowerneck -21.1531 -5.31043 -11.8621
upperneck 29.0778 -5.64199 7.74489
head 14.0659 -2.61523 4.13632
rclavicle -4.45029e-014 1.78906e-015
rhumerus -28.9892 -8.24203 -79.6011
rradius 33.2133
rwrist 3.95007
rhand -17.4261 7.82735
rfingers 7.12502
rthumb 8.82418 -21.9682
lclavicle -4.45029e-014 1.78906e-015
lhumerus -38.1745 10.2978 81.2385
lradius 25.2664
lwrist -9.31811
lhand -16.1323 24.9971
lfingers 7.12502
lthumb 10.0725 54.736
rfemur 12.512 -2.20834 23.4383
rtibia 11.4913
rfoot -11.546 -12.8646
rtoes -10.1487
lfemur -22.4285 -0.870215 -18.9531
ltibia 12.5262
lfoot -0.941488 7.71221
ltoes 6.21916
196
root -6.33181 17.8311 8.16932 -5.52937 54.6398 -6.06785
lowerback 11.0887 2.43573 2.47173
upperback 0.636097 3.59535 0.510599
thorax -5.42899 1.72336 -1.41245
lowerneck -21.1533 -5.35299 -11.8999
upperneck 29.0175 -5.72797 7.86512
head 14.0566 -2.63924 4.17432
rclavicle 4.73356e-015 -8.94531e-015
rhumerus -28.78 -8.47256 -79.5217
rradius 33.3688
rwrist 3.63718
rhand -17.4142 8.01442
rfingers 7.12502
rthumb 8.83564 -21.7806
lclavicle 4.73356e-015 -8.94531e-015
lhumerus -38.17 10.6175 81.0212
lradius 24.8804
lwrist -9.97931
lhand -15.6912 24.2823
lfingers 7.12502
lthumb 10.498 54.0001
rfemur 12.9308 -2.25767 23.4007
rtibia 11.3551
rfoot -11.4454 -12.9395
rtoes -10.2307
lfemur -22.3348 -0.894266 -19.0527
ltibia 11.669
lfoot -1.49358 8.3735
ltoes 5.86876
197
root -6.22241 17.8226 8.22848 -5.39713 54.8928 -6.08947
lowerback 10.9254 2.46323 2.48769
upperback 0.626015 3.62914 0.517517
thorax -5.3465 1.74116 -1.41097
lowerneck -21.1856 -5.37302 -12.0217
upperneck 28.9868 -5.748 7.99038
head 14.0624 -2.64345 4.24234
rclavicle 9.49818e-014 1.2921e-015
rhumerus -28.5454 -8.46255 -79.444
rradius 33.5196
rwrist 3.2842
rhand -17.6039 8.08044
rfingers 7.12502
rthumb 8.65261 -21.7222
lclavicle 9.49818e-014 1.2921e-015
lhumerus -38.1413 11.0324 80.9962
lradius 24.4746
lwrist -11.0219
lhand -15.8256 24.8621
lfingers 7.12502
lthumb 10.3684 54.5864
rfemur 13.222 -2.30356 23.345
rtibia 11.3623
rfoot -11.4163 -13.0169
rtoes -9.76373
lfemur -22.2823 -0.937155 -19.1883
ltibia 11.0961
lfoot -1.96595 9.20441
ltoes 5.38984
198
root -6.11222 17.8193 8.28667 -5.2394 55.2427 -6.0541
lowerback 10.8209 2.46354 2.46911
upperback 0.601718 3.62518 0.533473
thorax -5.31591 1.74017 -1.37866
lowerneck -21.2853 -5.42482 -12.2066
upperneck 29.0133 -5.77919 8.09974
head 14.1115 -2.6612 4.31436
rclavicle -4.9311e-014 -8.94531e-016
rhumerus -28.3683 -8.5508 -79.2835
rradius 33.7184
rwrist 3.03445
rhand -17.532 7.83308
rfingers 7.12502
rthumb 8.72202 -21.9667
lclavicle -4.9311e-014 -8.94531e-016
lhumerus -38.1848 10.9977 81.1495
lradius 24.3209
lwrist -11.1037
lhand -16.2612 26.0636
lfingers 7.12502
lthumb 9.94816 55.8086
rfemur 13.4779 -2.44394 23.2393
rtibia 11.5054
rfoot -11.374 -13.0238
rtoes -9.48234
lfemur -22.2096 -0.784502 -19.4882
ltibia 10.8124
lfoot -2.17496 9.73233
ltoes 5.79546
